<?xml version="1.0" encoding="utf-8"?>
<!-- Generator: Adobe Illustrator 28.3.0, SVG Export Plug-In . SVG Version: 6.00 Build 0)  -->
<svg version="1.1" id="Layer_1" xmlns="http://www.w3.org/2000/svg" xmlns:xlink="http://www.w3.org/1999/xlink" x="0px" y="0px"
	 viewBox="0 0 1601 1001" style="enable-background:new 0 0 1601 1001;" xml:space="preserve">
<style type="text/css">
	.st0{fill:none;stroke:#8E2DE2;}
	.st1{fill:#EDE5F6;}
	.st2{enable-background:new    ;}
	.st3{fill:#8E2DE2;}
</style>
<g id="horizontal-left" transform="translate(-4.743)">
	<rect id="Rectangle_43" x="5.2" y="0.5" class="st0" width="1600" height="1000"/>
	<line id="Line_1" class="st0" x1="5.2" y1="360.5" x2="1415.2" y2="360.5"/>
	<line id="Line_2" class="st0" x1="1475.2" y1="360.5" x2="1605.2" y2="360.5"/>
	<rect id="Rectangle_44" x="10.2" y="5.5" class="st1" width="1590" height="350"/>
	<g class="st2">
		<path class="st3" d="M1496.9,225.5h-11.2v-71.7c-2.7,2.6-6.3,5.2-10.7,7.8c-4.4,2.6-8.3,4.5-11.8,5.8v-10.9
			c6.3-3,11.8-6.5,16.5-10.8c4.7-4.2,8-8.3,10-12.2h7.2V225.5z"/>
	</g>
	<rect id="Rectangle_45" x="118.2" y="138.5" class="st3" width="230" height="84"/>
	<g id="Group_45" transform="translate(440.243 107.5)">
		<g class="st2">
			<path class="st3" d="M64.4,105.2V116H3.9c-0.1-2.7,0.4-5.3,1.3-7.8c1.5-4.1,4-8.2,7.4-12.2c3.4-4,8.3-8.6,14.7-13.9
				C37.3,74,44,67.5,47.5,62.7c3.5-4.8,5.2-9.3,5.2-13.5c0-4.5-1.6-8.2-4.8-11.3s-7.3-4.6-12.5-4.6c-5.4,0-9.8,1.6-13,4.9
				s-4.9,7.8-4.9,13.5L6,50.5c0.8-8.6,3.8-15.2,8.9-19.7C20.1,26.3,27,24,35.7,24c8.8,0,15.8,2.4,20.9,7.3s7.7,10.9,7.7,18.1
				c0,3.7-0.8,7.3-2.3,10.8c-1.5,3.5-4,7.3-7.5,11.2c-3.5,3.9-9.3,9.3-17.3,16.1c-6.8,5.7-11.1,9.5-13,11.5c-1.9,2-3.5,4.1-4.8,6.1
				H64.4z"/>
		</g>
	</g>
	<rect id="Rectangle_49" x="611.2" y="174.5" class="st3" width="90" height="10"/>
	<rect id="Rectangle_49-2" x="731.2" y="174.5" class="st3" width="90" height="10"/>
	<rect id="Rectangle_49-3" x="851.2" y="174.5" class="st3" width="90" height="10"/>
	<rect id="Rectangle_49-4" x="971.2" y="174.5" class="st3" width="90" height="10"/>
</g>
</svg>
