<?xml version="1.0" encoding="utf-8"?>
<!-- Generator: Adobe Illustrator 28.3.0, SVG Export Plug-In . SVG Version: 6.00 Build 0)  -->
<svg version="1.1" id="Layer_1" xmlns="http://www.w3.org/2000/svg" xmlns:xlink="http://www.w3.org/1999/xlink" x="0px" y="0px"
	 viewBox="0 0 1601 1001" style="enable-background:new 0 0 1601 1001;" xml:space="preserve">
<style type="text/css">
	.st0{fill:none;stroke:#8E2DE2;}
	.st1{fill:#EDE5F6;}
	.st2{fill:none;stroke:#8E2DE2;stroke-miterlimit:10;}
	.st3{fill:#8E2DE2;}
</style>
<g id="sidebar-2" transform="translate(-0.5)">
	<rect id="Rectangle_43" x="1" y="0.5" class="st0" width="1600" height="1000"/>
	<path id="Path_1" class="st1" d="M1586.2,15.2l-2.9-9.7H1266v990h312.4l7.8-9.7v4.9l-2-3.9l2-1l9.8-9.7V24.9L1586.2,15.2z"/>
	<g id="Group_46" transform="translate(1261 0.5)">
		<line id="Line_3" class="st2" x1="0" y1="872.2" x2="0" y2="0"/>
		<line id="Line_4" class="st2" x1="0" y1="1000" x2="0" y2="916.1"/>
	</g>
	<g id="Group_50" transform="translate(1317.585 75.622)">
		<g id="Group_48" transform="translate(88.415 734.878)">
			<path id="Path_6" class="st3" d="M0,77v-8.8l8.5-7.8C25.5,43.9,34,35.1,34,24.4c0-6.8-3.8-12.7-13.2-12.7
				c-5.8,0.1-11.5,2.2-16,5.8L0.9,7.8C6.6,2.9,14.2,0,23.6,0c16,0,24.5,10.7,24.5,23.4c0,13.6-9.4,24.4-21.7,36.1l-6.6,5.8H50V77
				L0,77L0,77z"/>
		</g>
		<g id="Group_49" transform="translate(98.415 -0.122)">
			<path id="Path_7" class="st3" d="M17.4,12.7L17.4,12.7L2.9,19.5L0,8.8L18.4,0H30v76H16.5V12.7H17.4z"/>
		</g>
		<rect id="Rectangle_50" x="3.4" y="150.9" class="st3" width="220" height="80"/>
		<rect id="Rectangle_49" x="68.4" y="350.9" class="st3" width="90" height="10"/>
		<rect id="Rectangle_49-2" x="68.4" y="420.9" class="st3" width="90" height="10"/>
		<rect id="Rectangle_49-3" x="68.4" y="490.9" class="st3" width="90" height="10"/>
		<rect id="Rectangle_49-4" x="68.4" y="560.9" class="st3" width="90" height="10"/>
	</g>
</g>
</svg>
