<?xml version="1.0" encoding="utf-8"?>
<!-- Generator: Adobe Illustrator 28.3.0, SVG Export Plug-In . SVG Version: 6.00 Build 0)  -->
<svg version="1.1" id="Layer_1" xmlns="http://www.w3.org/2000/svg" xmlns:xlink="http://www.w3.org/1999/xlink" x="0px" y="0px"
	 viewBox="0 0 1601 1001" style="enable-background:new 0 0 1601 1001;" xml:space="preserve">
<style type="text/css">
	.st0{fill:none;stroke:#8E2DE2;}
	.st1{fill:#EDE5F6;}
	.st2{fill:none;stroke:#8E2DE2;stroke-miterlimit:10;}
	.st3{fill:#8E2DE2;}
</style>
<g id="sidebar-topbar" transform="translate(-0.5)">
	<rect id="Rectangle_43" x="1" y="0.5" class="st0" width="1600" height="1000"/>
	<path id="Path_1" class="st1" d="M15.8,223.5l2.9-7.7H336v779.7H23.6l-7.8-7.7v3.8l2-3.1l-2-0.8L6,980.2V231.1L15.8,223.5z"/>
	<g id="Group_46" transform="translate(341 0.5)">
		<line id="Line_3" class="st2" x1="0" y1="872.2" x2="0" y2="210.5"/>
		<line id="Line_4" class="st2" x1="0" y1="1000" x2="0" y2="916.1"/>
	</g>
	<g id="Group_50" transform="translate(57.585 75.622)">
		<g id="Group_48" transform="translate(88.415 221.878)">
			<path id="Path_6" class="st3" d="M0,77v-8.8l8.5-7.8C25.5,43.9,34,35.1,34,24.4c0-6.8-3.8-12.7-13.2-12.7
				c-5.8,0.1-11.5,2.2-16,5.8L0.9,7.8C6.6,2.9,14.2,0,23.6,0c16,0,24.5,10.7,24.5,23.4c0,13.6-9.4,24.4-21.7,36.1l-6.6,5.8H50V77
				L0,77L0,77z"/>
		</g>
		<rect id="Rectangle_44" x="-51.6" y="-70.1" class="st1" width="1590" height="200"/>
		<rect id="Rectangle_50" x="3.4" y="-10.1" class="st3" width="220" height="80"/>
		<rect id="Rectangle_49" x="68.4" y="397.9" class="st3" width="90" height="10"/>
		<rect id="Rectangle_49-2" x="68.4" y="467.9" class="st3" width="90" height="10"/>
		<rect id="Rectangle_49-3" x="68.4" y="537.9" class="st3" width="90" height="10"/>
		<rect id="Rectangle_49-4" x="68.4" y="607.9" class="st3" width="90" height="10"/>
		<line id="Line_1" class="st0" x1="-56.6" y1="134.9" x2="1543.4" y2="134.9"/>
		<g id="Group_57" transform="translate(88.415 734.878)">
			<path id="Path_15" class="st3" d="M0,55.8L14.2,54c0.9,3.5,1.8,6.2,3.5,8c1.9,1.8,4.5,2.7,7.1,2.7c3,0,5.9-1.3,8-3.5
				c2.7-2.7,2.7-5.3,2.7-8.9c0.1-3.2-0.9-6.3-2.7-8.9c-1.6-2.3-4.3-3.7-7.1-3.5c-2.4-0.1-4.8,0.2-7.1,0.9l1.8-11.5
				c3.5,0,7.1-0.9,8.9-2.7s3.5-4.4,3.5-7.1c0.1-2.4-0.9-4.6-2.7-6.2c-1.6-1.8-3.8-2.7-6.2-2.7c-2.4-0.1-4.6,0.9-6.2,2.7
				c-1.8,1.8-2.7,4.4-3.5,8L0.9,19.5c0.8-3.8,2.3-7.4,4.4-10.6c1.8-2.7,4.4-5.3,8-6.2S20.4,0,24.8,0c7.1,0,13.3,2.7,16.8,7.1
				c3.4,3.3,5.3,7.7,5.3,12.4c0,7.1-3.5,12.4-10.6,15.9c4.4,0.9,8,2.7,10.6,6.2c2.5,3.3,3.7,7.4,3.5,11.5c0.1,6.3-2.5,12.5-7.1,16.8
				C38.9,74.3,32.7,77,24.8,77c-7.1,0-12.4-1.8-16.8-6.2S0.9,62,0,55.8z"/>
		</g>
		<g id="Group_49" transform="translate(1408.415 -8.122)">
			<path id="Path_7" class="st3" d="M17.4,12.7L17.4,12.7L2.9,19.5L0,8.8L18.4,0H30v76H16.5V12.7H17.4z"/>
		</g>
	</g>
</g>
</svg>
