<?xml version="1.0" encoding="utf-8"?>
<!-- Generator: Adobe Illustrator 24.1.0, SVG Export Plug-In . SVG Version: 6.00 Build 0)  -->
<svg version="1.1" id="Layer_1" xmlns="http://www.w3.org/2000/svg" xmlns:xlink="http://www.w3.org/1999/xlink" x="0px" y="0px"
	 viewBox="0 0 150 104" style="enable-background:new 0 0 150 104;" xml:space="preserve">
<style type="text/css">
	.st0{fill:#EDE5F6;}
	.st1{fill:none;stroke:#8E2DE2;stroke-miterlimit:10;}
	.st2{stroke:#8E2DE2;stroke-width:2;stroke-miterlimit:10;}
	.st3{enable-background:new    ;}
	.st4{fill:#8E2DE2;}
	.st5{fill:#EDE5F6;stroke:#8E2DE2;}
	.st6{fill:#6C38A3;stroke:#8E2DE2;}
</style>
<g>
	<rect x="1" y="1.3" class="st0" width="147.4" height="19.2"/>
	<polygon class="st0" points="2,21.8 2.3,21 34.8,21 34.8,103 2.6,103 2.8,103 2,102.2 2,102.6 2.2,102.3 2,102.2 1,101.4 1,22.6 	
		"/>
	<g>
		<line class="st1" x1="35.3" y1="92.5" x2="35.3" y2="20.5"/>
		<line class="st1" x1="35.3" y1="103" x2="35.3" y2="96.1"/>
	</g>
	<g>
		<g>
			<path class="st2" d="M13.6,44.4h8.6H13.6z"/>
			<path class="st2" d="M13.6,52.6h8.6H13.6z"/>
			<path class="st2" d="M13.6,60.8h8.6H13.6z"/>
			<path class="st2" d="M13.6,69h8.6H13.6z"/>
		</g>
		<g class="st3">
			<path class="st4" d="M15.2,35.4v-0.9l0.9-0.8c1.8-1.7,2.7-2.6,2.7-3.7c0-0.7-0.4-1.3-1.4-1.3c-0.7,0-1.3,0.3-1.7,0.6l-0.4-1
				c0.6-0.5,1.4-0.8,2.4-0.8c1.7,0,2.6,1.1,2.6,2.4c0,1.4-1,2.5-2.3,3.7l-0.7,0.6l0,0h3.2v1.2L15.2,35.4L15.2,35.4z"/>
		</g>
		<g class="st3">
			<path class="st4" d="M139.7,8.6L139.7,8.6l-1.5,0.7l-0.3-1.1l1.9-0.9h1.2v7.8h-1.4L139.7,8.6L139.7,8.6z"/>
		</g>
		<rect x="6.8" y="6.6" class="st5" width="22.1" height="8"/>
	</g>
</g>
<g>
	<path class="st4" d="M14.9,88.3l1.6-0.2c0.1,0.4,0.2,0.7,0.4,0.9s0.5,0.3,0.8,0.3c0.3,0,0.6-0.1,0.9-0.4s0.3-0.6,0.3-1
		c0-0.4-0.1-0.7-0.3-1s-0.5-0.4-0.8-0.4c-0.2,0-0.5,0-0.8,0.1l0.2-1.3c0.4,0,0.8-0.1,1-0.3s0.4-0.5,0.4-0.8c0-0.3-0.1-0.5-0.3-0.7
		s-0.4-0.3-0.7-0.3c-0.3,0-0.5,0.1-0.7,0.3s-0.3,0.5-0.4,0.9L15,84.2c0.1-0.5,0.3-0.9,0.5-1.2s0.5-0.6,0.9-0.7s0.8-0.3,1.3-0.3
		c0.8,0,1.5,0.3,1.9,0.8c0.4,0.4,0.6,0.9,0.6,1.4c0,0.8-0.4,1.4-1.2,1.8c0.5,0.1,0.9,0.3,1.2,0.7s0.4,0.8,0.4,1.3
		c0,0.8-0.3,1.4-0.8,1.9s-1.2,0.8-2.1,0.8c-0.8,0-1.4-0.2-1.9-0.7S15,89,14.9,88.3z"/>
</g>
<line class="st6" x1="1" y1="21" x2="148.4" y2="21"/>
</svg>
