<?xml version="1.0" encoding="utf-8"?>
<!-- Generator: Adobe Illustrator 28.3.0, SVG Export Plug-In . SVG Version: 6.00 Build 0)  -->
<svg version="1.1" id="Layer_1" xmlns="http://www.w3.org/2000/svg" xmlns:xlink="http://www.w3.org/1999/xlink" x="0px" y="0px"
	 viewBox="0 0 1601 1001" style="enable-background:new 0 0 1601 1001;" xml:space="preserve">
<style type="text/css">
	.st0{fill:none;stroke:#8E2DE2;}
	.st1{fill:#EDE5F6;}
	.st2{enable-background:new    ;}
	.st3{fill:#8E2DE2;}
</style>
<g id="stacked_style1" transform="translate(-4.743)">
	<rect id="Rectangle_43" x="5.2" y="0.5" class="st0" width="1600" height="1000"/>
	<line id="Line_1" class="st0" x1="5.2" y1="600.5" x2="1415.2" y2="600.5"/>
	<line id="Line_2" class="st0" x1="1475.2" y1="600.5" x2="1605.2" y2="600.5"/>
	<rect id="Rectangle_44" x="10.2" y="5.5" class="st1" width="1590" height="590"/>
	<g class="st2">
		<path class="st3" d="M817.9,492.5h-11.2v-71.7c-2.7,2.6-6.3,5.2-10.7,7.8c-4.4,2.6-8.3,4.5-11.8,5.8v-10.9
			c6.3-3,11.8-6.5,16.5-10.8c4.7-4.2,8-8.3,10-12.2h7.2V492.5z"/>
	</g>
	<rect id="Rectangle_45" x="690.2" y="105.5" class="st3" width="230" height="84"/>
	<rect id="Rectangle_49" x="580.2" y="289.5" class="st3" width="90" height="10"/>
	<rect id="Rectangle_49-2" x="700.2" y="289.5" class="st3" width="90" height="10"/>
	<rect id="Rectangle_49-3" x="820.2" y="289.5" class="st3" width="90" height="10"/>
	<rect id="Rectangle_49-4" x="940.2" y="289.5" class="st3" width="90" height="10"/>
</g>
</svg>
