<svg xmlns="http://www.w3.org/2000/svg" width="640" height="693" viewBox="0 0 640 693">
  <path id="Path_92" data-name="Path 92" d="M1265.763,2126.989q1.181.011,2.36-.047c1.294-1.415,3.54-.849,4.817-2.3l4.7-.089c1.283-1.4,3.53-.81,4.765-2.306q1.183.007,2.365-.071c.761-.816,1.687-1.457,2.434-2.291q1.16.005,2.319-.073,1.212-1.133,2.376-2.316l-.007.007c.795-.812,1.663-1.547,2.465-2.352q1.152,0,2.3-.092,1.212-1.114,2.335-2.315l.022-.019c.827-.744,1.612-1.531,2.364-2.351l.014-.014q1.2-1.137,2.337-2.344.092-1.137.078-2.282c.8-.808,1.541-1.673,2.352-2.472l0,.01c1.438-1.263,1.011-3.458,2.388-4.752l-.006.009c1.432-1.267,1.01-3.452,2.37-4.755h0c1.48-1.237.944-3.476,2.366-4.742q.068-1.141.041-2.284c.827-.769,1.479-1.706,2.327-2.456q.072-1.144.051-2.289c.83-.769,1.479-1.707,2.329-2.457q.074-1.137.052-2.279c.8-.8,1.544-1.665,2.345-2.47,1.451-1.251,1.014-3.455,2.4-4.737l-.014.014q1.176-1.173,2.317-2.38.087-1.146.078-2.3c.812-.79,1.547-1.653,2.345-2.459l.006,0c1.454-1.248,1.013-3.452,2.4-4.731l-.016.014c.807-.761,1.523-1.611,2.322-2.382q.088-1.144.076-2.292c.807-.8,1.547-1.659,2.348-2.463q1.191-1.141,2.306-2.355.092-1.159.091-2.321c.825-.773,1.557-1.635,2.347-2.442l0-.01c1.465-1.237,1.015-3.452,2.423-4.719l-.022.019c.783-.8,1.587-1.584,2.354-2.405l.006,0q1.194-1.141,2.317-2.351.094-1.147.09-2.3c.809-.8,1.546-1.665,2.364-2.455l-.01.01c.8-.785,1.6-1.562,2.349-2.392l.011-.018c1.475-1.225,1.013-3.45,2.441-4.7l-.025.02c.773-.821,1.578-1.61,2.378-2.4l-.015.015c.79-.8,1.592-1.587,2.374-2.4l-.006.006c.806-.778,1.6-1.564,2.369-2.382l0,0c.813-.762,1.608-1.542,2.352-2.372l.022-.022a28.554,28.554,0,0,0,2.347-2.351l.029-.029q1.225-1.121,2.347-2.344l.03-.03q1.226-1.12,2.347-2.342l.031-.03q1.225-1.121,2.35-2.342l.027-.029a28.319,28.319,0,0,0,2.357-2.343l.022-.021c.832-.743,1.615-1.533,2.376-2.346l.006-.006c.821-.762,1.608-1.558,2.39-2.361l-.007.007c.809-.781,1.6-1.582,2.4-2.368l-.016.014c.777-.834,1.655-1.565,2.463-2.368q1.149,0,2.294-.1,1.214-1.118,2.348-2.312l.011-.011c.826-.757,1.608-1.562,2.408-2.345l-.017.019c1.266-1.4,3.488-.942,4.713-2.418l.025-.016c.837-.741,1.611-1.549,2.41-2.33l-.017.018c1.279-1.4,3.492-.956,4.745-2.4h0c1.3-1.358,3.5-.921,4.742-2.38l.011-.007c1.308-1.34,3.5-.912,4.751-2.36l.006,0c1.306-1.372,3.528-.886,4.787-2.354q1.181,0,2.363-.072c.762-.818,1.688-1.464,2.447-2.285l4.692-.1c1.292-1.381,3.528-.8,4.771-2.288q1.174.018,2.347-.035c2.76-2.5,6.819.292,9.548-2.332q3.551-.029,7.1-.055a34.2,34.2,0,0,1,18.986-.007l9.472.067c2.737,2.613,6.8-.177,9.559,2.328q1.176.052,2.354.031c1.906,2.239,5.2.229,7.152,2.331q1.176.057,2.353.043c1.242,1.488,3.49.906,4.775,2.307q1.182.067,2.364.062c1.239,1.5,3.5.906,4.776,2.331q1.158.067,2.318.048c.741.836,1.667,1.475,2.429,2.289q1.176.079,2.354.081c1.265,1.459,3.5.972,4.79,2.373l-.01-.007c1.27,1.426,3.473,1,4.763,2.385l-.015-.014q1.171,1.171,2.383,2.3,1.16.083,2.325.084c.748.842,1.687,1.485,2.439,2.323q1.14.081,2.283.063c.811.8,1.679,1.537,2.475,2.349l-.006-.007q1.162,1.182,2.374,2.311,1.152.088,2.308.084c.792.812,1.659,1.547,2.459,2.351l0,0q1.156,1.188,2.369,2.316,1.145.092,2.294.086c.807.8,1.681,1.537,2.465,2.362l-.012-.012c.793.789,1.575,1.592,2.4,2.345l.012.013q1.134,1.2,2.346,2.314,1.147.1,2.3.092c.8.806,1.682,1.537,2.459,2.37l-.015-.016c.8.787,1.592,1.587,2.406,2.363l0,0c.774.8,1.553,1.6,2.388,2.343l.023.022q1.124,1.2,2.335,2.32,1.14.1,2.287.094c.814.8,1.694,1.527,2.46,2.375l-.017-.017c.818.776,1.61,1.577,2.4,2.376l-.015-.016c.8.792,1.6,1.588,2.4,2.38l-.012-.012c.792.8,1.58,1.6,2.4,2.363.77.811,1.554,1.6,2.381,2.357l.013.012c.753.819,1.537,1.607,2.366,2.35l.02.02q1.133,1.217,2.358,2.34l.031.03q1.118,1.222,2.347,2.331l.041.041a31.71,31.71,0,0,0,2.338,2.327l.044.045a30.626,30.626,0,0,0,2.333,2.324l.048.048a30.09,30.09,0,0,0,2.329,2.325l.048.046a31.371,31.371,0,0,0,2.33,2.332l.04.041q1.111,1.225,2.336,2.339l.032.033q1.124,1.222,2.345,2.349l.024.024c.741.829,1.532,1.61,2.351,2.362l.012.012c.756.824,1.553,1.608,2.363,2.38l-.005,0c.776.812,1.576,1.6,2.372,2.393l-.012-.012c.795.8,1.6,1.591,2.386,2.392l-.014-.016c.834.776,1.567,1.651,2.375,2.452q0,1.152.1,2.3,1.109,1.209,2.313,2.323l.024.025c.741.834,1.539,1.611,2.348,2.377.771.817,1.576,1.6,2.363,2.4l-.014-.016c.836.778,1.57,1.651,2.371,2.462q-.011,1.143.084,2.281,1.136,1.207,2.329,2.358c.771.817,1.578,1.6,2.36,2.405l-.022-.018c1.409,1.259.951,3.479,2.427,4.7l.015.019c.747.832,1.55,1.61,2.344,2.4l-.011-.01c.824.788,1.561,1.656,2.364,2.464q-.018,1.141.068,2.28c.806.767,1.519,1.624,2.335,2.38l-.01-.01c.819.792,1.56,1.658,2.359,2.467q-.016,1.141.067,2.278c.808.767,1.525,1.621,2.336,2.385l-.014-.015c1.389,1.274.938,3.484,2.412,4.715l.01.019c.751.83,1.56,1.606,2.341,2.407l-.022-.018c1.406,1.272.964,3.482,2.416,4.73.8.8,1.538,1.666,2.349,2.459q-.009,1.15.077,2.3c.8.773,1.514,1.619,2.317,2.383l-.016-.017c1.392,1.275.946,3.484,2.408,4.724v.012c.8.806,1.534,1.666,2.346,2.456q-.011,1.151.072,2.3c.8.771,1.517,1.619,2.319,2.387l-.018-.018c1.4,1.278.957,3.485,2.408,4.735,1.359,1.291.916,3.488,2.387,4.724l.01.017c.783.813,1.519,1.672,2.334,2.455-.011.769.012,1.535.065,2.3.832.752,1.473,1.686,2.319,2.424q0,1.165.077,2.325,1.133,1.209,2.307,2.382l-.018-.018c1.394,1.285.964,3.485,2.4,4.751l-.008-.011c1.383,1.291.955,3.486,2.387,4.752l-.006-.009c1.378,1.294.955,3.487,2.381,4.759l-.008-.013c1.384,1.293.962,3.486,2.384,4.761l-.011-.016c1.413,1.293.933,3.52,2.376,4.8q-.009,1.161.064,2.32c.837.754,1.484,1.687,2.315,2.446q-.023,1.15.046,2.3c1.415,1.272.886,3.5,2.353,4.748l0-.01c1.392,1.3.914,3.521,2.365,4.8q-.009,1.168.064,2.334c1.392,1.275.861,3.5,2.336,4.729,1.382,1.307.9,3.523,2.354,4.8q-.012,1.164.057,2.327c1.422,1.273.83,3.528,2.333,4.761q-.005,1.182.065,2.363c1.379,1.28.851,3.493,2.324,4.726h0c1.388,1.316.923,3.525,2.344,4.826q-.025,1.147.04,2.29c2.14,1.929.126,5.234,2.371,7.128l0-.012c2.11,1.949.151,5.24,2.37,7.153q-.014,1.173.049,2.345c1.421,1.287.849,3.533,2.316,4.8q-.027,1.156.035,2.309c2.137,1.947.12,5.248,2.35,7.165q-.025,1.162.027,2.323c2.133,1.953.13,5.25,2.344,7.178q.031,2.348.063,4.7c2.087,1.965.109,5.237,2.315,7.165q.02,2.341.038,4.683c2.945,4.4-.707,9.884,2.352,14.266q.012,2.355.025,4.711A114.672,114.672,0,0,1,1727,2335.7l-.029,4.723c-3.065,4.377.589,9.858-2.353,14.256q-.05,1.171-.026,2.344c-2.652,2.713.184,6.784-2.364,9.522q-.056,1.155-.026,2.31c-1.469,1.262-.9,3.5-2.309,4.791q-.063,1.18-.054,2.362c-2.23,1.9-.259,5.2-2.38,7.138l.007-.01c-1.462,1.247-.939,3.466-2.335,4.744q-.072,1.162-.061,2.325c-1.445,1.279-.969,3.5-2.363,4.8l0-.01c-1.436,1.264-1.014,3.451-2.371,4.755-1.449,1.253-1.02,3.445-2.378,4.744-1.45,1.253-1.016,3.451-2.394,4.74l.011-.01q-1.183,1.157-2.31,2.37-.086,1.155-.084,2.315c-.821.776-1.555,1.636-2.339,2.447l-.008.012c-1.468,1.233-1.016,3.45-2.424,4.714l.022-.018c-.783.8-1.59,1.584-2.355,2.4l-.005.007q-1.2,1.139-2.319,2.35-.1,1.144-.09,2.292c-.808.8-1.542,1.676-2.374,2.454l.016-.014c-.791.8-1.594,1.582-2.365,2.4-.809.767-1.608,1.542-2.348,2.376l-.024.025q-1.206,1.119-2.322,2.327-.1,1.139-.1,2.283c-.8.811-1.533,1.69-2.383,2.453l.017-.018c-.777.816-1.579,1.609-2.386,2.4l.017-.014c-.789.8-1.59,1.6-2.385,2.393l.013-.013c-.795.8-1.6,1.586-2.381,2.391l.008-.006c-.806.781-1.6,1.571-2.378,2.384l0-.01c-.807.776-1.6,1.563-2.369,2.381h-.006c-.812.768-1.608,1.551-2.364,2.374l-.011.009c-.819.756-1.611,1.539-2.36,2.365l-.016.018a31.779,31.779,0,0,0-2.356,2.355l-.022.02a29.527,29.527,0,0,0-2.352,2.352l-.025.026q-1.223,1.122-2.346,2.347l-.031.03q-1.224,1.117-2.34,2.342l-.037.036q-1.226,1.11-2.336,2.337l-.041.042a30.967,30.967,0,0,0-2.333,2.331l-.045.043a30.917,30.917,0,0,0-2.333,2.329l-.046.044a30.8,30.8,0,0,0-2.332,2.327l-.046.045a30.715,30.715,0,0,0-2.333,2.327l-.044.044a30.966,30.966,0,0,0-2.333,2.327l-.046.044a31.172,31.172,0,0,0-2.333,2.327l-.044.044a30.863,30.863,0,0,0-2.333,2.328l-.044.045a30.564,30.564,0,0,0-2.333,2.327l-.046.045a30.157,30.157,0,0,0-2.33,2.327l-.047.044a29.966,29.966,0,0,0-2.329,2.327l-.048.048a29.185,29.185,0,0,0-2.327,2.324l-.036.053c-2.311,3.2-5,6.118-7.215,9.4l.028-.016c-.767.828-1.567,1.621-2.39,2.392l.017-.016c-.771.823-1.571,1.617-2.392,2.392l.017-.018c-.774.82-1.576,1.612-2.388,2.4l.018-.017q-1.178,1.214-2.391,2.391l.017-.015c-.787.8-1.589,1.595-2.381,2.4l.011-.01c-.8.789-1.6,1.581-2.382,2.385l.007-.007c-.8.781-1.6,1.569-2.372,2.384-.809.766-1.608,1.545-2.351,2.376l-.022.021q-1.206,1.122-2.325,2.332-.1,1.137-.095,2.279c-.8.812-1.531,1.691-2.378,2.458l.018-.015c-.781.811-1.585,1.6-2.377,2.4l.011-.012c-.8.79-1.6,1.576-2.369,2.392a33.008,33.008,0,0,0-2.33,2.378l-.04.042a31.543,31.543,0,0,0-2.3,2.3q-.1,1.155-.108,2.314c-.819.787-1.554,1.654-2.366,2.447l.008-.007c-.8.778-1.6,1.556-2.347,2.388l-.02.02q-1.2,1.117-2.309,2.328-.094,1.154-.1,2.31c-.817.789-1.553,1.657-2.366,2.45l.008-.009c-.8.779-1.6,1.555-2.344,2.39l-.015.023c-1.481,1.221-1.021,3.443-2.434,4.7l.024-.019c-.783.807-1.588,1.593-2.365,2.406h.006q-1.194,1.151-2.331,2.361-.094,1.136-.084,2.276c-.8.815-1.533,1.689-2.369,2.465l.016-.014c-.787.8-1.593,1.581-2.359,2.4h0q-1.192,1.148-2.324,2.357-.1,1.14-.089,2.283c-.8.811-1.536,1.684-2.371,2.462l.016-.014c-.789.8-1.592,1.583-2.364,2.4-.809.765-1.605,1.542-2.343,2.377l-.018.03c-1.487,1.213-1.02,3.441-2.446,4.687l.026-.022c-.774.82-1.578,1.611-2.383,2.4l.017-.014c-.789.8-1.592,1.591-2.375,2.4l.007-.009c-.8.781-1.6,1.568-2.372,2.384h0c-.812.768-1.606,1.552-2.363,2.374l-.011.012a31.3,31.3,0,0,0-2.345,2.365l-.03.031c-.818.742-1.594,1.526-2.339,2.341l-.038.037q-1.228,1.109-2.339,2.334l-.038.038q-1.228,1.11-2.341,2.333l-.037.037q-1.227,1.112-2.345,2.334l-.034.034q-1.227,1.119-2.355,2.338l-.023.022c-.831.741-1.613,1.532-2.373,2.345l-.007.012c-.825.758-1.61,1.554-2.393,2.355l.009-.007c-.809.781-1.6,1.582-2.4,2.366l.017-.015c-.777.837-1.653,1.569-2.465,2.369q-1.147-.005-2.289.09-1.214,1.122-2.357,2.316l-.006.009c-.823.763-1.605,1.565-2.409,2.348l.018-.02c-1.266,1.4-3.489.947-4.721,2.42l-.018.01c-.834.748-1.61,1.555-2.414,2.332l.019-.022c-1.276,1.405-3.492.966-4.747,2.411h0c-.807.8-1.669,1.542-2.479,2.337q-1.142-.018-2.281.058c-.754.846-1.692,1.495-2.465,2.319q-1.147-.018-2.292.057c-.754.842-1.692,1.49-2.461,2.315q-1.147-.02-2.293.05c-1.273,1.409-3.511.88-4.754,2.35l0-.011c-1.308,1.393-3.532.921-4.821,2.354q-1.158-.014-2.316.049c-1.284,1.433-3.543.859-4.812,2.325H1466.6l-1.159.039c-1.949,2.125-5.255.112-7.171,2.342l-1.171,0-1.17.034c-2.76,2.515-6.825-.284-9.559,2.337l-4.705.035a88.354,88.354,0,0,1-30.89.019l-7.114-.042c-3.556-2.886-8.325.4-11.91-2.333l-4.7-.056c-1.932-2.2-5.222-.219-7.187-2.32l-1.173-.037h-1.175c-1.909-2.24-5.22-.219-7.165-2.347l-1.163-.037-1.164,0c-1.26-1.473-3.511-.9-4.8-2.311q-1.176-.059-2.353-.051c-1.241-1.491-3.487-.908-4.774-2.3q-1.181-.074-2.365-.066c-1.239-1.5-3.5-.908-4.774-2.322q-1.169-.069-2.338-.061c-1.277-1.447-3.5-.971-4.807-2.349-1.237-1.472-3.464-.942-4.742-2.331q-1.161-.073-2.325-.06c-.736-.841-1.665-1.475-2.426-2.29q-1.174-.083-2.351-.082c-1.267-1.457-3.5-.972-4.794-2.373l.011.007c-1.271-1.425-3.473-1-4.764-2.384l.012.012c-1.27-1.425-3.479-1-4.762-2.4l.018.02c-.773-.8-1.624-1.514-2.4-2.313q-1.149-.083-2.3-.071c-.795-.81-1.661-1.545-2.465-2.344h-.006c-1.249-1.451-3.461-1.01-4.74-2.4l.016.017c-.795-.783-1.567-1.59-2.408-2.323l-.03-.022c-1.222-1.481-3.443-1.023-4.711-2.414l.014.017c-.792-.788-1.57-1.592-2.4-2.338l-.021-.012c-1.228-1.473-3.453-1.016-4.713-2.428l.02.024c-.813-.779-1.6-1.581-2.411-2.363l.007.009c-.78-.8-1.558-1.6-2.394-2.342l-.023-.023q-1.12-1.2-2.333-2.311-1.145-.1-2.3-.1c-.807-.8-1.683-1.534-2.46-2.37l.017.016c-.807-.784-1.6-1.586-2.4-2.37l.009.008c-.785-.8-1.574-1.6-2.393-2.364h0c-.765-.812-1.549-1.6-2.376-2.353l-.015-.016a30.846,30.846,0,0,0-2.365-2.34l-.028-.029q-1.124-1.221-2.351-2.339l-.032-.032q-1.118-1.224-2.346-2.338l-.034-.035q-1.116-1.222-2.344-2.337l-.034-.034c-.744-.816-1.528-1.593-2.344-2.338l-.034-.033c-.747-.817-1.531-1.6-2.342-2.351l-.021-.023c-.743-.829-1.535-1.61-2.354-2.365l-.009-.01c-.758-.822-1.552-1.605-2.365-2.373-.771-.817-1.572-1.6-2.369-2.392l.011.012c-.791-.8-1.6-1.589-2.376-2.4l.017.017c-.848-.768-1.58-1.646-2.376-2.463q.007-1.139-.088-2.274-1.135-1.207-2.329-2.358h0c-.769-.818-1.573-1.6-2.359-2.4l.016.014c-.838-.776-1.573-1.65-2.37-2.465q.013-1.137-.074-2.272c-.8-.767-1.516-1.624-2.336-2.375l.008.007c-.815-.794-1.555-1.661-2.358-2.466q.015-1.142-.07-2.283c-.8-.769-1.522-1.621-2.331-2.385l.017.015c-1.391-1.276-.944-3.486-2.412-4.723l-.008-.012c-.784-.811-1.518-1.671-2.34-2.447q0-1.159-.08-2.315-1.129-1.209-2.313-2.368l.011.01c-1.377-1.286-.937-3.489-2.4-4.73l-.006-.012c-.79-.809-1.531-1.667-2.336-2.463q.02-1.146-.058-2.288c-.84-.75-1.486-1.687-2.329-2.434q.005-1.16-.077-2.317-1.133-1.211-2.312-2.378l.015.015c-1.387-1.287-.958-3.488-2.4-4.75l0,.011c-1.371-1.288-.932-3.488-2.394-4.731v-.012c-.8-.807-1.536-1.667-2.339-2.469q.022-1.142-.055-2.281c-.845-.75-1.494-1.688-2.329-2.446q.013-1.154-.065-2.3c-.831-.754-1.473-1.685-2.319-2.424q0-1.164-.079-2.325-1.129-1.211-2.309-2.377l.014.015c-1.385-1.286-.951-3.486-2.4-4.742v0c-1.366-1.289-.925-3.49-2.392-4.728l-.01-.013c-.784-.813-1.518-1.672-2.335-2.454q.007-1.156-.079-2.308-1.134-1.209-2.315-2.376l.013.014c-1.385-1.281-.941-3.487-2.406-4.727l-.008-.01c-.785-.811-1.519-1.671-2.341-2.447q0-1.16-.09-2.319-1.118-1.211-2.309-2.354c-.8-.8-1.535-1.666-2.352-2.452q0-1.155-.093-2.308-1.116-1.213-2.311-2.347l0-.009c-.766-.819-1.57-1.6-2.359-2.4l.021.018c-1.4-1.262-.94-3.48-2.427-4.7l-.018-.028c-.738-.838-1.541-1.611-2.341-2.39l.006.011c-.779-.812-1.587-1.6-2.365-2.409l.024.02c-1.417-1.245-.945-3.474-2.443-4.677l-.027-.041a29.97,29.97,0,0,0-2.33-2.37l0-.01c-.766-.818-1.568-1.6-2.364-2.391l.011.012c-.792-.8-1.594-1.592-2.377-2.4l.017.017c-.812-.783-1.614-1.576-2.386-2.4l.025.022c-1.428-1.237-.95-3.471-2.453-4.668l-.031-.045q-1.111-1.231-2.33-2.351l-.022-.024c-.743-.829-1.533-1.61-2.353-2.361l-.013-.013c-.755-.823-1.547-1.607-2.361-2.371l-.006,0c-.765-.817-1.558-1.6-2.371-2.373-.771-.815-1.569-1.6-2.375-2.383l.006.01c-.779-.808-1.576-1.6-2.381-2.384l.009.009c-.787-.8-1.584-1.6-2.385-2.386l.011.011q-1.187-1.2-2.387-2.385l.012.012q-1.19-1.2-2.388-2.388l.013.015c-.8-.8-1.6-1.589-2.386-2.395l.017.015c-.807-.787-1.608-1.581-2.391-2.392l.017.018c-.812-.783-1.612-1.577-2.388-2.4l.025.02c-1.425-1.239-.949-3.472-2.449-4.672l-.029-.042q-1.118-1.229-2.331-2.363l-.012-.013c-.754-.826-1.556-1.607-2.358-2.387l.007.009c-.781-.81-1.587-1.6-2.371-2.4l.024.02c-1.411-1.259-.953-3.479-2.432-4.7l-.013-.022c-.745-.834-1.55-1.609-2.342-2.4l.015.014c-1.389-1.275-.941-3.485-2.411-4.719l-.01-.014c-.783-.813-1.516-1.672-2.337-2.449q.005-1.157-.076-2.313c-.82-.756-1.458-1.684-2.309-2.411q.005-1.167-.076-2.333c-.816-.758-1.451-1.688-2.3-2.414q0-1.167-.072-2.329c-.821-.759-1.465-1.686-2.3-2.43q.022-1.155-.048-2.308c-1.407-1.275-.88-3.5-2.345-4.747l.006.011c-2.107-1.937-.164-5.223-2.384-7.122v.008c-2.1-1.962-.162-5.242-2.358-7.172q.025-1.159-.031-2.316c-2.532-2.748.285-6.81-2.352-9.533q-.022-2.355-.043-4.708a73.7,73.7,0,0,1,0-28.439l.044-4.721c2.646-2.716-.184-6.784,2.361-9.524q.056-1.156.029-2.309c1.467-1.264.893-3.509,2.315-4.8q.063-1.171.052-2.343c1.489-1.244.905-3.491,2.32-4.771q.07-1.166.06-2.335c1.454-1.272.975-3.487,2.357-4.794,1.478-1.235.944-3.464,2.349-4.734q.072-1.151.052-2.3c.836-.753,1.481-1.685,2.316-2.44q.074-1.154.06-2.309c.84-.749,1.485-1.683,2.321-2.435q.076-1.148.061-2.3c.814-.786,1.549-1.647,2.338-2.455l.009-.011c1.462-1.24,1.02-3.446,2.4-4.727l-.013.012q1.178-1.169,2.32-2.375.087-1.146.079-2.3c.809-.8,1.547-1.662,2.36-2.458l-.008.008c.8-.779,1.6-1.554,2.343-2.39l.016-.024c1.483-1.219,1.02-3.444,2.44-4.695l-.025.02c.778-.814,1.584-1.6,2.375-2.4l-.011.012c.8-.788,1.6-1.574,2.363-2.392l.006-.009c.816-.76,1.607-1.542,2.354-2.367l.019-.019q1.219-1.13,2.339-2.355l.036-.037a31.915,31.915,0,0,0,2.329-2.337l.048-.047a28.752,28.752,0,0,0,2.323-2.325l.055-.055a27.493,27.493,0,0,0,2.322-2.317l.055-.054a27.869,27.869,0,0,0,2.324-2.317l.053-.053a29.763,29.763,0,0,0,2.336-2.319l.042-.042q1.228-1.11,2.352-2.328l.026-.026a31.267,31.267,0,0,0,2.364-2.343l.016-.018c.829-.748,1.613-1.542,2.381-2.351.818-.769,1.606-1.568,2.4-2.364l-.009.009c.8-.787,1.594-1.588,2.406-2.368l-.017.015c.772-.841,1.65-1.572,2.461-2.372q1.147,0,2.291-.095,1.212-1.119,2.347-2.314l.012-.01c.826-.758,1.609-1.56,2.4-2.352l-.012.012c.787-.823,1.659-1.557,2.467-2.358q1.149.009,2.292-.084,1.214-1.133,2.371-2.321l0,.008c.8-.808,1.665-1.546,2.469-2.35q1.151.009,2.3-.079,1.2-1.146,2.386-2.315l-.013.014c1.276-1.385,3.492-.935,4.723-2.406l.02-.012c.817-.776,1.678-1.506,2.45-2.328q1.165,0,2.326-.083,1.214-1.126,2.38-2.3l-.013.014c1.29-1.383,3.5-.951,4.756-2.388l0,.006c1.3-1.367,3.5-.946,4.769-2.371l-.011.006c1.3-1.4,3.528-.924,4.811-2.362q1.165.005,2.327-.066c.759-.835,1.691-1.483,2.463-2.3q1.143.027,2.286-.042c1.272-1.42,3.511-.894,4.765-2.35l-.008,0c1.3-1.4,3.527-.913,4.8-2.365q1.178,0,2.351-.094,1.217-1.116,2.377-2.291l-.012.014c1.291-1.383,3.493-.955,4.761-2.382h-.008c1.3-1.371,3.5-.947,4.765-2.373l-.01.006c1.3-1.4,3.529-.919,4.8-2.367q1.171,0,2.337-.072c.759-.824,1.689-1.467,2.441-2.3q1.156.02,2.31-.048c1.272-1.427,3.536-.835,4.772-2.335q1.185,0,2.367-.073c.765-.816,1.69-1.461,2.449-2.282l4.691-.1C1262.289,2127.9,1264.528,2128.482,1265.763,2126.989Z" transform="translate(-1088.382 -1964.304)"/>
</svg>
